<svg xmlns="http://www.w3.org/2000/svg" viewBox="0 0 24 24" fill="none">
  <defs>
    <linearGradient id="sparkleGradient" x1="0%" y1="0%" x2="100%" y2="100%">
      <stop offset="0%" style="stop-color:#1DD1A1;stop-opacity:1" />
      <stop offset="100%" style="stop-color:#1BC4B2;stop-opacity:1" />
    </linearGradient>
  </defs>
  <rect width="24" height="24" rx="4" fill="url(#sparkleGradient)"/>
  <path d="M9.937 15.5A2 2 0 0 0 8.5 14.063l-6.135-1.582a.5.5 0 0 1 0-.962L8.5 9.936A2 2 0 0 0 9.937 8.5l1.582-6.135a.5.5 0 0 1 .963 0L14.063 8.5A2 2 0 0 0 15.5 9.937l6.135 1.581a.5.5 0 0 1 0 .964L15.5 14.063a2 2 0 0 0-1.437 1.437l-1.582 6.135a.5.5 0 0 1-.963 0z"
        fill="white"
        transform="translate(0.5, 0.5) scale(0.75)"
        transform-origin="12 12"/>
  <path d="M20.25 8.5V7h-1.5v1.5h1.5zm0 6V13h-1.5v1.5h1.5z"
        fill="white"
        opacity="0.8"
        transform="translate(0.5, 0.5) scale(0.75)"
        transform-origin="12 12"/>
</svg>
